<svg width="16" height="16" viewBox="0 0 16 16" fill="none" xmlns="http://www.w3.org/2000/svg">
<circle cx="8" cy="8" r="8" fill="url(#paint0_linear_2671_32109)"/>
<path fill-rule="evenodd" clip-rule="evenodd" d="M9.9131 5.56523C9.5289 5.56523 9.21745 5.87668 9.21745 6.26088V6.81744H11.4783V8.93918H9.18267V9.84353C9.18267 11.5148 7.82784 12.8696 6.15658 12.8696C4.48532 12.8696 3.13049 11.5148 3.13049 9.84353C3.13049 8.17227 4.48532 6.81744 6.15658 6.81744H7.13049V8.93918H9.18265V6.83479H7.13049V6.26088C7.13049 4.72409 8.37631 3.47827 9.9131 3.47827H12.5392V5.56523H9.9131ZM6.15658 8.9044C5.63791 8.9044 5.21745 9.32486 5.21745 9.84353C5.21745 10.3622 5.63791 10.7827 6.15658 10.7827C6.67525 10.7827 7.09571 10.3622 7.09571 9.84353V8.9044H6.15658Z" fill="white"/>
<defs>
<linearGradient id="paint0_linear_2671_32109" x1="8" y1="0" x2="8" y2="16" gradientUnits="userSpaceOnUse">
<stop stop-color="#00E0C5"/>
<stop offset="1" stop-color="#00D17A"/>
</linearGradient>
</defs>
</svg>
