<svg width="16" height="16" viewBox="0 0 16 16" fill="none" xmlns="http://www.w3.org/2000/svg">
<path d="M8 16C3.58172 16 0 12.4183 0 8C0 3.58172 3.58172 0 8 0C12.4183 0 16 3.58172 16 8C16 12.4183 12.4183 16 8 16Z" fill="url(#paint0_linear_2671_32118)"/>
<path d="M10.2915 6.44398C10.1254 6.3425 9.90958 6.3425 9.72695 6.44398L8.43172 7.22199L7.55165 7.7294L6.25646 8.5074C6.0904 8.60888 5.87454 8.60888 5.69188 8.5074L4.66236 7.89851C4.49631 7.79703 4.38007 7.611 4.38007 7.40804V6.20719C4.38007 6.00423 4.47971 5.81818 4.66236 5.7167L5.67527 5.12474C5.84133 5.02326 6.05719 5.02326 6.23985 5.12474L7.25277 5.7167C7.41881 5.81818 7.53505 6.00423 7.53505 6.20719V6.98521L8.41512 6.46089V5.68288C8.41512 5.47992 8.31551 5.29387 8.13284 5.19239L6.25646 4.07611C6.0904 3.97463 5.87454 3.97463 5.69188 4.07611L3.78229 5.19239C3.59963 5.29387 3.5 5.47992 3.5 5.68288V7.93236C3.5 8.13531 3.59963 8.32137 3.78229 8.42285L5.69188 9.53913C5.85793 9.6406 6.0738 9.6406 6.25646 9.53913L7.55165 8.77802L8.43172 8.25371L9.72695 7.4926C9.89298 7.39112 10.1088 7.39112 10.2915 7.4926L11.3044 8.08457C11.4705 8.18605 11.5867 8.37211 11.5867 8.57506V9.77589C11.5867 9.97888 11.4871 10.1649 11.3044 10.2664L10.2915 10.8753C10.1254 10.9768 9.90958 10.9768 9.72695 10.8753L8.71403 10.2833C8.54796 10.1818 8.43172 9.99577 8.43172 9.79282V9.01482L7.55165 9.53913V10.3171C7.55165 10.5201 7.6513 10.7061 7.83393 10.8076L9.74354 11.9239C9.90958 12.0254 10.1254 12.0254 10.3081 11.9239L12.2177 10.8076C12.3838 10.7061 12.5 10.5201 12.5 10.3171V8.06765C12.5 7.86469 12.4004 7.67867 12.2177 7.57719L10.2915 6.44398Z" fill="white"/>
<defs>
<linearGradient id="paint0_linear_2671_32118" x1="8" y1="0" x2="8" y2="16" gradientUnits="userSpaceOnUse">
<stop stop-color="#9F47E5"/>
<stop offset="1" stop-color="#8247E5"/>
</linearGradient>
</defs>
</svg>
