<svg width="16" height="16" viewBox="0 0 16 16" fill="none" xmlns="http://www.w3.org/2000/svg">
<path d="M8 16C3.58172 16 0 12.4183 0 8C0 3.58172 3.58172 0 8 0C12.4183 0 16 3.58172 16 8C16 12.4183 12.4183 16 8 16Z" fill="url(#paint0_linear_2671_32127)"/>
<path fill-rule="evenodd" clip-rule="evenodd" d="M5.37403 9.8375C5.3996 9.81058 5.43049 9.78895 5.46486 9.77392C5.49922 9.75889 5.53636 9.75075 5.57403 9.75H11.8579C11.8845 9.75036 11.9104 9.75819 11.9325 9.77253C11.9547 9.78687 11.9721 9.80713 11.9826 9.83085C11.9932 9.85458 11.9965 9.88076 11.9921 9.90626C11.9877 9.93176 11.9759 9.95549 11.958 9.97458L10.626 11.4125C10.6004 11.4394 10.5695 11.461 10.5351 11.4761C10.5008 11.4911 10.4636 11.4992 10.426 11.5H4.13805C4.11147 11.4996 4.08555 11.4918 4.06343 11.4775C4.04131 11.4631 4.02392 11.4429 4.01336 11.4191C4.00279 11.3954 3.99951 11.3692 4.00389 11.3437C4.00827 11.3182 4.02013 11.2945 4.03806 11.2754L5.37403 9.8375ZM11.964 8.64555C11.9819 8.66465 11.9937 8.68838 11.9981 8.71388C12.0025 8.73937 11.9992 8.76556 11.9886 8.78929C11.9781 8.81301 11.9607 8.83326 11.9385 8.8476C11.9164 8.86195 11.8905 8.86977 11.8639 8.87014L5.57803 8.875C5.54036 8.87425 5.50322 8.86612 5.46886 8.85108C5.43449 8.83605 5.4036 8.81442 5.37804 8.7875L4.03606 7.35445C4.01813 7.33535 4.00627 7.31162 4.00189 7.28612C3.9975 7.26063 4.00079 7.23444 4.01136 7.21071C4.02192 7.18699 4.03931 7.16674 4.06143 7.15239C4.08355 7.13805 4.10947 7.13023 4.13605 7.12986L10.422 7.125C10.4596 7.12575 10.4968 7.13388 10.5311 7.14892C10.5655 7.16395 10.5964 7.18558 10.622 7.2125L11.964 8.64555ZM5.37403 4.5875C5.3996 4.56058 5.43049 4.53896 5.46486 4.52392C5.49922 4.50888 5.53636 4.50075 5.57403 4.5L11.862 4.50486C11.8885 4.50523 11.9145 4.51305 11.9366 4.52739C11.9587 4.54174 11.9761 4.56199 11.9866 4.58571C11.9972 4.60944 12.0005 4.63563 11.9961 4.66112C11.9917 4.68662 11.9799 4.71035 11.9619 4.72944L10.626 6.1625C10.6004 6.18942 10.5695 6.21105 10.5351 6.22608C10.5008 6.24112 10.4636 6.24925 10.426 6.25H4.13805C4.11147 6.24964 4.08555 6.24181 4.06343 6.22747C4.04131 6.21313 4.02392 6.19287 4.01336 6.16915C4.00279 6.14542 3.99951 6.11924 4.00389 6.09374C4.00827 6.06824 4.02013 6.04451 4.03806 6.02542L5.37403 4.5875Z" fill="white"/>
<defs>
<linearGradient id="paint0_linear_2671_32127" x1="15.5139" y1="16.3489" x2="-1.09165" y2="1.40416" gradientUnits="userSpaceOnUse">
<stop stop-color="#953EFF"/>
<stop offset="0.14" stop-color="#955FFF"/>
<stop offset="0.42" stop-color="#536DEA"/>
<stop offset="0.79" stop-color="#1FC5BA"/>
<stop offset="0.99" stop-color="#00FFAB"/>
<stop offset="1" stop-color="#00FFAB"/>
</linearGradient>
</defs>
</svg>
