<svg width="16" height="16" viewBox="0 0 16 16" fill="none" xmlns="http://www.w3.org/2000/svg">
<path d="M8 16C3.58172 16 0 12.4183 0 8C0 3.58172 3.58172 0 8 0C12.4183 0 16 3.58172 16 8C16 12.4183 12.4183 16 8 16Z" fill="url(#paint0_linear_2671_32122)"/>
<path d="M8.50568 12.9126C7.82803 12.9126 7.33445 12.7424 7.02437 12.4021C6.71458 12.062 6.55954 11.6951 6.55954 11.302C6.55954 11.1582 6.58649 11.0373 6.64056 10.939C6.6933 10.842 6.76989 10.7617 6.86232 10.7063C6.956 10.6496 7.07128 10.6213 7.2083 10.6213C7.34532 10.6213 7.46045 10.6496 7.55428 10.7063C7.64796 10.7631 7.72183 10.8407 7.7759 10.939C7.82996 11.0373 7.85692 11.1582 7.85692 11.302C7.85692 11.4759 7.8173 11.6176 7.73807 11.7273C7.65868 11.837 7.565 11.9087 7.45688 11.9429C7.55071 12.0788 7.69845 12.1753 7.90026 12.232C8.10207 12.2926 8.30388 12.3228 8.50568 12.3228C8.78673 12.3228 9.04081 12.2434 9.26794 12.0846C9.49492 11.9257 9.66262 11.6913 9.77075 11.3813C9.87888 11.0713 9.93294 10.7196 9.93294 10.3263C9.93294 9.89916 9.87337 9.53416 9.75452 9.23182C9.63909 8.92557 9.46796 8.69869 9.24083 8.55119C9.02072 8.40587 8.76576 8.32919 8.50568 8.3301C8.33262 8.3301 8.11651 8.40572 7.85692 8.55697L7.38122 8.8065V8.55697L9.52203 5.56244H6.55954V8.67025C6.55954 8.92744 6.6136 9.13916 6.72173 9.30557C6.82985 9.47197 6.99562 9.5551 7.21917 9.5551C7.39194 9.5551 7.55785 9.49463 7.71647 9.37354C7.87611 9.2514 8.01498 9.10191 8.12724 8.93135C8.14169 8.89713 8.15971 8.8726 8.1813 8.85744C8.20073 8.83945 8.22569 8.82941 8.2516 8.82916C8.29122 8.82916 8.33798 8.84994 8.3922 8.89166C8.44268 8.95197 8.46785 9.02197 8.46785 9.10135C8.46165 9.1548 8.4526 9.20786 8.44075 9.26025C8.31832 9.5476 8.14883 9.76682 7.93258 9.91807C7.72204 10.0675 7.47335 10.1466 7.21917 10.1449C6.57756 10.1449 6.13417 10.0126 5.88917 9.74807C5.64417 9.48322 5.5216 9.124 5.5216 8.67041V5.56244H4.00781V4.98385H5.5216V3.66822L5.17562 3.30494V3.01025H6.18109L6.55939 3.21432V4.98385L10.4734 4.9726L10.8627 5.38088L8.46249 7.899C8.6078 7.83824 8.76078 7.80003 8.9166 7.78557C9.17605 7.78557 9.46796 7.8726 9.79234 8.0465C10.1203 8.21666 10.3726 8.45119 10.5491 8.74963C10.7257 9.04463 10.8392 9.32822 10.8897 9.60041C10.9438 9.87275 10.9709 10.1146 10.9709 10.3263C10.9709 10.8104 10.8735 11.2603 10.679 11.6763C10.4843 12.0921 10.1888 12.4021 9.79234 12.6063C9.39588 12.8106 8.96694 12.9126 8.50568 12.9126Z" fill="white"/>
<defs>
<linearGradient id="paint0_linear_2671_32122" x1="8" y1="0" x2="8" y2="16" gradientUnits="userSpaceOnUse">
<stop stop-color="#2C96F7"/>
<stop offset="1" stop-color="#2C7DF7"/>
</linearGradient>
</defs>
</svg>
